<svg xmlns="http://www.w3.org/2000/svg" width="327" height="88" fill="none" xmlns:v="https://vecta.io/nano"><path d="M40.202 26.264l.573-.263-.573.263z" fill="#a37d64"/><path d="M30.799 40.536a2.55 2.55 0 0 0-.135.343l-.135.359c-.828 2.296-.86 4.234-.334 5.868 1.808 5.526 10.144 7.575 16.578 8.324l.398.048c4.156.462 7.413.383 7.413.383-1.76.805-3.424 1.483-4.992 2.041-.024.008-.048.016-.064.024-3.917 1.379-7.222 1.993-10.017 2.017a30.51 30.51 0 0 1-1.489.08c-5.932.167-11.625-.829-16.641-4.242-6.099-4.154-7.883-10.684-4.73-17.334 1.338-2.822 3.185-5.199 5.351-7.288l.008-.008.032-.032c.016-.008.04-.032.056-.048.024-.024.056-.048.095-.08.024-.016.048-.032.072-.056l1.155-.965.494-.415.39-.327.526-.439c.024-.024.048-.04.064-.056.008-.008.016-.016.024-.016l.709-.598.374-.311c.024-.024.048-.048.072-.056l.016-.016.143-.12c.048-.048.088-.072.111-.096.016-.008.024-.024.04-.032l.008-.008c.016-.008.032-.024.04-.024v-.008c5.988-5.039 14.237-9.751 22.621-13.818 5.008-2.424 10.048-4.616 14.683-6.506C73.182 3.277 81.145.789 83.462.032c-.279.008-.757.008-1.011.008L40.664 0l-4.029.04C31.698.622 27.216 2.328 22.9 4.529 10.208 10.971 3.066 21.44.414 35.242.247 36.111 0 37.123 0 37.905v47.161c4.992 0 8.719.271 12.74-.191 14.691-1.69 25.941-7.957 30.026-10.525l.191-.12c.056-.032.104-.064.159-.104l.358-.231c.255-.167.51-.343.764-.518.064-.04.111-.08.143-.096.008-.008.024-.016.032-.024.016-.008.024-.016.04-.032 12.366-9.608 16.594-16.042 16.633-20.348.048-4.609-4.698-6.777-9.356-7.798l-.51-.104c-4.292-.869-8.36-.797-8.36-.797.247-.207 11.124-1.746 16.315-.997 4.467.646 8.44 2.304 11.784 5.167v.008c.541.462 1.067.949 1.577 1.475 2.739 2.831 3.32 6.155 1.696 9.815-.709 1.579-1.656 3.038-2.779 4.361a42.45 42.45 0 0 1-1.951 2.169l-.024.024c-.024.032-.056.056-.088.088-3.83 3.939-8.321 6.992-13.297 9.48-6.187 3.062-12.612 5.151-19.221 6.61-.008.008-.024.008-.04.008a119.68 119.68 0 0 1-5.837 1.276l-8.265 1.507h26.786c2.978-.231 5.741-.949 8.257-1.539 2.644-.622 5.04-1.419 7.206-2.368.103-.04.215-.088.319-.136 15.805-7.024 19.572-21.583 20.463-28.121.287-2.089.295-3.389.295-3.428V1.316c-6.895.877-48.786 25.706-55.259 39.22zM55.84 37.33a6.07 6.07 0 1 1 0-12.143 6.07 6.07 0 0 1 6.067 6.075c-.008 3.349-2.715 6.068-6.067 6.068z" fill="#f17c21"/><path d="M116.88 29.788a9.25 9.25 0 0 1-.932 4.082 10.67 10.67 0 0 1-2.603 3.413c-1.115.989-2.437 1.778-3.958 2.368-1.528.59-3.208.885-5.056.885-1.656 0-3.137-.096-4.459-.287a19.08 19.08 0 0 1-3.718-.909 17.61 17.61 0 0 1-3.336-1.603c-1.067-.654-2.174-1.443-3.312-2.368l5.247-5.302c1.529 1.276 3.018 2.177 4.483 2.703s3.05.789 4.77.789c.701 0 1.361-.104 1.983-.311a5.56 5.56 0 0 0 1.624-.837c.462-.351.828-.766 1.099-1.244s.406-1.005.406-1.579a3.81 3.81 0 0 0-.335-1.627c-.223-.479-.621-.941-1.194-1.387s-1.37-.901-2.389-1.363l-3.909-1.555a35.89 35.89 0 0 1-4.029-1.746c-1.29-.654-2.421-1.443-3.392-2.368a10.78 10.78 0 0 1-2.333-3.245c-.589-1.244-.884-2.711-.884-4.393 0-1.626.326-3.117.979-4.489s1.545-2.543 2.675-3.508c1.131-.973 2.452-1.722 3.957-2.272 1.513-.542 3.137-.813 4.889-.813 2.93 0 5.39.383 7.397 1.148a16.2 16.2 0 0 1 5.343 3.341l-5.152 5.206c-.955-.925-2.022-1.634-3.201-2.129s-2.564-.741-4.148-.741c-.733 0-1.41.112-2.031.335s-1.154.518-1.6.885a4.39 4.39 0 0 0-1.075 1.292c-.271.495-.406 1.013-.406 1.555 0 .606.127 1.156.382 1.65s.685.973 1.29 1.435 1.409.925 2.413 1.387l3.742 1.507c1.911.67 3.543 1.403 4.913 2.201s2.484 1.674 3.336 2.631c.86.957 1.497 2.033 1.911 3.221.414 1.204.613 2.543.613 4.042zm29.246 10.03h-6.872V23.29c0-.989-.151-1.858-.454-2.607s-.7-1.371-1.194-1.866-1.075-.861-1.72-1.1a5.9 5.9 0 0 0-2.038-.359c-1.051 0-2.062.159-3.018.478-.963.319-1.887.765-2.779 1.34v20.643h-6.871V.215h6.871l.048 13.57c1.019-.797 2.198-1.387 3.527-1.762 1.338-.383 2.628-.574 3.862-.574 1.433 0 2.787.231 4.053.694a9.63 9.63 0 0 1 3.392 2.105c.987.941 1.76 2.121 2.333 3.532.573 1.419.86 3.094.86 5.039v16.999zm27.629 0h-6.871v-1.483c-1.211.829-2.485 1.403-3.838 1.722a18.15 18.15 0 0 1-4.172.478c-1.338 0-2.548-.199-3.623-.598-1.083-.399-2.023-.973-2.819-1.722s-1.409-1.634-1.839-2.655-.645-2.145-.645-3.397c0-1.563.342-2.926 1.027-4.082a8.69 8.69 0 0 1 2.795-2.91c1.178-.781 2.556-1.363 4.124-1.746 1.577-.383 3.265-.574 5.08-.574h3.958c0-1.627-.526-2.91-1.577-3.867s-2.564-1.435-4.531-1.435c-.955 0-1.942.175-2.954.526-1.019.351-2.038.989-3.049 1.914l-4.053-4.106c1.465-1.403 3.161-2.488 5.08-3.245a15.94 15.94 0 0 1 5.94-1.148c1.911 0 3.607.303 5.096.909s2.691 1.387 3.607 2.336c1.202 1.212 2.046 2.567 2.532 4.058.485 1.499.732 3.405.732 5.733v15.293zm-6.871-6.873v-5.119h-3.145c-.956 0-1.856.064-2.7.191s-1.576.343-2.197.646-1.115.694-1.481 1.172-.55 1.052-.55 1.722a2.85 2.85 0 0 0 1.123 2.336c.748.606 1.712.909 2.89.909a9.96 9.96 0 0 0 3.034-.478c.995-.311 2.007-.773 3.026-1.379zm12.167 6.865V.279h7.014V39.81h-7.014zm18.56-30.099c-2.636 0-4.778-2.145-4.778-4.784s2.142-4.784 4.778-4.784 4.777 2.145 4.777 4.784-2.142 4.784-4.777 4.784z" fill="#fff"/><path d="M201.09 12.159h-6.967v57.726h6.967V12.159z" fill="#f17c21"/><path d="M232.725 17.653h-2.906c.732 1.435 1.098 2.958 1.098 4.585 0 1.244-.23 2.448-.692 3.604-.462 1.164-1.123 2.224-1.983 3.181s-1.903 1.762-3.129 2.44c-1.226.67-2.604 1.116-4.125 1.339-1.051.16-1.839.407-2.365.742s-.788.67-.788 1.005.263.646.788.933 1.314.478 2.365.574c3.56.319 6.322 1.212 8.281 2.679 1.951 1.467 2.938 3.405 2.938 5.828 0 1.244-.302 2.392-.899 3.437-.606 1.052-1.465 1.953-2.588 2.719s-2.476 1.355-4.061 1.762c-1.585.415-3.36.622-5.327.622-1.998 0-3.798-.207-5.398-.622s-2.97-.997-4.109-1.746-2.014-1.651-2.62-2.703-.899-2.217-.899-3.484c0-1.914.541-3.508 1.632-4.8s2.866-2.256 5.327-2.886c-.765-.287-1.314-.678-1.648-1.172s-.486-.997-.454-1.507.247-.997.645-1.459.963-.821 1.696-1.076c-.828-.383-1.625-.877-2.381-1.483a12.23 12.23 0 0 1-2.046-2.105c-.606-.797-1.091-1.69-1.442-2.679-.358-.989-.525-2.041-.525-3.149a9.45 9.45 0 0 1 .955-4.202c.637-1.308 1.497-2.448 2.572-3.421 1.083-.973 2.341-1.738 3.774-2.296a12.36 12.36 0 0 1 4.531-.837c1.561 0 3.002.239 4.339.718h9.444v5.462zm-7.397 26.902c0-1.116-.558-1.93-1.688-2.44-1.123-.51-2.572-.765-4.348-.765-1.903 0-3.4.271-4.49.813s-1.641 1.34-1.641 2.392c0 1.084.574 1.89 1.712 2.44 1.139.542 2.612.813 4.419.813 1.84 0 3.305-.263 4.396-.789s1.64-1.355 1.64-2.464zm-1.29-22.309a4.81 4.81 0 0 0-.398-1.953c-.271-.606-.629-1.14-1.091-1.603a5.07 5.07 0 0 0-1.608-1.1c-.614-.271-1.266-.407-1.959-.407s-1.338.136-1.935.407-1.131.638-1.585 1.1-.82.997-1.082 1.603c-.271.606-.399 1.26-.399 1.953a4.91 4.91 0 0 0 .399 1.985 5.33 5.33 0 0 0 1.082 1.627c.454.462.988.829 1.585 1.1s1.242.407 1.935.407 1.345-.136 1.959-.407a5.25 5.25 0 0 0 1.608-1.1 5.35 5.35 0 0 0 1.091-1.627c.271-.63.398-1.292.398-1.985zm31.826-7.169l-3.671 5.828a13.11 13.11 0 0 0-2.213-1.937c-.813-.558-1.633-.837-2.461-.837-.446 0-.931.104-1.457.311s-1.019.55-1.481 1.029-.852 1.108-1.17 1.89-.478 1.746-.478 2.894v15.572h-6.872v-27.62h6.872v2.958c.828-1.18 1.744-2.081 2.747-2.719s2.126-.957 3.36-.957c1.21 0 2.397.327 3.551.981 1.163.654 2.254 1.523 3.273 2.607zm24.811 24.741h-6.872v-1.483c-1.21.829-2.484 1.403-3.838 1.722a18.15 18.15 0 0 1-4.172.478c-1.338 0-2.548-.199-3.623-.598-1.083-.399-2.023-.973-2.819-1.722s-1.409-1.634-1.839-2.655-.645-2.145-.645-3.397c0-1.563.342-2.926 1.027-4.082.685-1.164 1.609-2.137 2.787-2.91 1.178-.781 2.556-1.363 4.124-1.746 1.577-.383 3.265-.574 5.08-.574h3.958c0-1.627-.526-2.91-1.577-3.867s-2.564-1.435-4.53-1.435c-.956 0-1.943.175-2.954.526-1.02.351-2.039.989-3.05 1.914l-4.053-4.106c1.465-1.403 3.161-2.488 5.08-3.245 1.927-.765 3.902-1.148 5.94-1.148 1.911 0 3.607.303 5.096.909s2.691 1.387 3.607 2.336c1.202 1.212 2.046 2.567 2.532 4.058.494 1.499.733 3.405.733 5.733v15.293h.008zm-6.872-6.873v-5.119h-3.145a18.06 18.06 0 0 0-2.699.191c-.844.128-1.577.343-2.198.646s-1.115.694-1.481 1.172-.549 1.052-.549 1.722a2.85 2.85 0 0 0 1.122 2.336c.749.606 1.712.909 2.891.909 1.019 0 2.03-.159 3.033-.478.996-.311 2.007-.773 3.026-1.379zm53.005 6.873h-6.871v-16.48c0-1.945-.47-3.42-1.409-4.417a4.55 4.55 0 0 0-3.456-1.507c-1.051 0-2.046.167-2.986.502s-1.855.885-2.747 1.65c.287 1.116.43 2.376.43 3.779v16.481h-6.872V23.338c0-1.945-.469-3.42-1.409-4.417-.94-1.005-2.078-1.507-3.408-1.507-1.051 0-1.975.183-2.771.55s-1.624.949-2.484 1.746v20.116h-6.872V12.207h6.872l.008 2.057c.86-.829 1.871-1.499 3.034-2.009s2.348-.765 3.559-.765c1.337 0 2.683.303 4.037.909a10.4 10.4 0 0 1 3.559 2.631c1.433-1.276 2.882-2.185 4.347-2.719 1.465-.542 3.074-.813 4.826-.813a12.8 12.8 0 0 1 4.084.646c1.29.431 2.413 1.116 3.368 2.057s1.72 2.137 2.294 3.588.859 3.189.859 5.23v16.8h.008z" fill="#fff"/><path d="M219.014 69.478h-2.962v-7.104c0-.423-.064-.797-.2-1.124s-.31-.59-.525-.805-.47-.367-.756-.478c-.287-.104-.574-.151-.876-.151a3.96 3.96 0 0 0-1.346.239 3.32 3.32 0 0 0-1.194.749v8.675h-2.962V57.574h2.962l.016.885a3.18 3.18 0 0 1 .66-.494 5.42 5.42 0 0 1 .813-.383 5.48 5.48 0 0 1 .86-.239 4.56 4.56 0 0 1 .852-.08c.605 0 1.186.096 1.735.287a4.12 4.12 0 0 1 1.481.885c.43.399.773.917 1.043 1.547.263.63.391 1.379.391 2.249v7.248h.008zm14.754-14.375c-.286-.112-.541-.183-.764-.215s-.462-.056-.725-.056c-.573 0-.979.136-1.226.391-.239.263-.358.734-.358 1.419v.949h1.871v2.607h-1.871v9.289h-2.962v-9.289h-1.441v-2.599h1.441v-.909c0-1.499.278-2.639.836-3.421s1.544-1.172 2.946-1.172c.796 0 1.545.096 2.245.287v2.719h.008zm20.647 8.427a6.2 6.2 0 0 1-.494 2.48 6.01 6.01 0 0 1-1.354 1.977 6.37 6.37 0 0 1-2.03 1.316c-.772.327-1.6.478-2.484.478a6.37 6.37 0 0 1-2.469-.478 6.43 6.43 0 0 1-2.014-1.332c-.573-.566-1.027-1.228-1.354-1.993-.326-.757-.493-1.579-.493-2.464a6.01 6.01 0 0 1 .501-2.44 6.5 6.5 0 0 1 1.37-2.001c.573-.566 1.25-1.013 2.014-1.34a6.2 6.2 0 0 1 2.445-.486c.876 0 1.704.16 2.484.486.772.327 1.449.765 2.03 1.316.574.558 1.028 1.22 1.354 1.993a6.38 6.38 0 0 1 .494 2.488zm-2.962 0c0-.51-.088-.981-.263-1.419s-.422-.821-.725-1.156c-.31-.327-.668-.59-1.083-.773a3.18 3.18 0 0 0-1.313-.279 3.22 3.22 0 0 0-1.314.279 3.26 3.26 0 0 0-1.083.773c-.311.327-.549.718-.725 1.156s-.262.917-.262 1.419a3.78 3.78 0 0 0 .262 1.419c.175.438.422.821.725 1.156.311.327.669.59 1.083.773a3.19 3.19 0 0 0 1.314.279c.462 0 .899-.096 1.313-.279a3.37 3.37 0 0 0 1.083-.773 3.59 3.59 0 0 0 .725-1.156c.175-.439.263-.917.263-1.419zm18.186 5.685a3.47 3.47 0 0 1-1.051.431c-.398.096-.796.143-1.195.143-.7 0-1.289-.088-1.767-.255-.478-.175-.86-.439-1.155-.797-.286-.359-.501-.813-.629-1.356-.135-.55-.199-1.196-.199-1.937V60.23h-1.56v-1.34c.963-.399 1.735-.989 2.333-1.77s1.003-1.802 1.226-3.054h.963v3.484h3.002v2.679h-3.002v5.414c0 .303.04.55.112.742.079.191.175.343.302.454.12.112.263.183.422.223s.327.064.502.064a3.38 3.38 0 0 0 .844-.128c.326-.088.613-.223.844-.415l.008 2.631zm20.551-5.709c0 .191-.008.391-.032.598l-.072.638h-9.507a4.02 4.02 0 0 0 .462.973 3.22 3.22 0 0 0 .732.805 3.62 3.62 0 0 0 .98.534c.358.136.764.199 1.202.199a4.99 4.99 0 0 0 1.608-.279c.534-.183.98-.439 1.338-.749l1.871 1.882c-.82.622-1.632 1.052-2.42 1.308a8.09 8.09 0 0 1-2.5.383 6.39 6.39 0 0 1-2.501-.494 6.26 6.26 0 0 1-2.014-1.34 6.3 6.3 0 0 1-1.346-1.993c-.326-.765-.493-1.571-.493-2.44a6.11 6.11 0 0 1 .493-2.44 6.09 6.09 0 0 1 1.362-1.993c.573-.566 1.25-1.013 2.014-1.34.773-.327 1.593-.494 2.469-.494a6.34 6.34 0 0 1 2.404.462 6.53 6.53 0 0 1 2.039 1.292 6.03 6.03 0 0 1 1.401 1.969c.342.758.51 1.603.51 2.52zm-3.106-1.156c-.231-.758-.645-1.363-1.242-1.826a3.21 3.21 0 0 0-2.03-.694c-.741 0-1.41.231-1.999.694a3.59 3.59 0 0 0-1.234 1.826h6.505zm22.199 5.342c-.605.686-1.329 1.212-2.181 1.563a6.82 6.82 0 0 1-2.676.534 6.44 6.44 0 0 1-2.444-.47c-.773-.319-1.433-.749-1.999-1.308a6.14 6.14 0 0 1-1.337-1.985c-.327-.773-.494-1.603-.494-2.496a6.21 6.21 0 0 1 .494-2.464 6.43 6.43 0 0 1 1.329-1.985 6.08 6.08 0 0 1 1.991-1.332c.764-.327 1.592-.486 2.468-.486.908 0 1.768.167 2.588.494a5.59 5.59 0 0 1 2.126 1.507l-1.999 2.041a3.94 3.94 0 0 0-1.098-.989c-.43-.263-.956-.391-1.577-.391a2.93 2.93 0 0 0-1.282.287c-.406.191-.764.455-1.067.773a3.69 3.69 0 0 0-.732 1.14c-.176.438-.271.909-.271 1.403s.087.965.271 1.403a3.7 3.7 0 0 0 .716 1.14c.303.327.661.582 1.067.773a3.03 3.03 0 0 0 1.298.287c.589 0 1.123-.144 1.608-.423.478-.287.86-.646 1.155-1.084l2.046 2.065zm17.621 1.786h-2.962V62.35c0-.423-.064-.797-.199-1.124s-.302-.59-.517-.805a2.13 2.13 0 0 0-.741-.47 2.53 2.53 0 0 0-.876-.151 4.2 4.2 0 0 0-1.306.207c-.414.135-.812.327-1.194.574v8.898h-2.962V52.4h2.962l.016 5.852c.438-.343.947-.598 1.521-.765s1.13-.247 1.664-.247c.621 0 1.202.096 1.752.303a4.09 4.09 0 0 1 1.457.909c.43.407.764.917 1.011 1.523.247.614.374 1.34.374 2.169v7.335z" fill="#f17c21"/><path d="M186.065 45.367H89.378v1.347h96.687v-1.347zm140.537.192h-91.281v1.18h91.281v-1.18zM90.222 72.652h4.109c1.999 0 3.487.558 4.483 1.682.9 1.028 1.354 2.488 1.354 4.377 0 2.153-.629 3.779-1.903 4.864-1.051.909-2.46 1.363-4.22 1.363h-3.822V72.652zm2.118 1.642v8.994h1.656c1.33 0 2.325-.415 2.978-1.236.613-.765.924-1.874.924-3.325 0-2.95-1.266-4.425-3.798-4.425h-1.76v-.008zm14.34-1.642v2.041h-2.158v-2.041h2.158zm-.087 3.596v8.691h-1.991v-8.691h1.991zm12.397-1.212l-.119 1.603c-.446 0-.781.04-1.012.12-.183.064-.358.175-.541.335a2.39 2.39 0 0 1 .709 1.738c0 .949-.359 1.682-1.083 2.201-.605.447-1.386.662-2.333.662a4.19 4.19 0 0 1-1.123-.144c-.422.207-.629.462-.629.757a.45.45 0 0 0 .263.439c.175.088.486.151.939.191l1.959.16c1.163.112 1.975.383 2.445.805.374.343.557.829.557 1.443 0 .837-.422 1.499-1.274 1.985-.78.439-1.807.654-3.089.654-1.314 0-2.325-.223-3.026-.654-.589-.375-.884-.853-.884-1.451 0-.741.534-1.308 1.6-1.69-.812-.183-1.218-.598-1.218-1.252 0-.646.446-1.244 1.33-1.802-.82-.526-1.234-1.292-1.234-2.296 0-.901.358-1.603 1.083-2.121.613-.447 1.385-.67 2.325-.67.716 0 1.329.136 1.847.415.303-.55.661-.933 1.083-1.14.358-.191.836-.287 1.425-.287zm-5.446 9.392c-.78.247-1.163.646-1.163 1.18 0 .399.247.71.741.925.422.183.971.279 1.648.279.868 0 1.529-.128 1.983-.391.366-.207.549-.463.549-.765 0-.327-.119-.566-.358-.71-.239-.136-.653-.239-1.242-.303l-2.158-.215zm1.075-7.2c-.486 0-.884.159-1.179.478-.262.287-.39.654-.39 1.108 0 .582.167 1.029.502 1.332.278.255.637.375 1.075.375.501 0 .899-.159 1.186-.486.263-.303.39-.71.39-1.204 0-.526-.175-.941-.517-1.236-.279-.247-.637-.367-1.067-.367zm10.51-4.576v2.041h-2.158v-2.041h2.158zm-.08 3.596v8.691h-1.99v-8.691h1.99zm7.286-2.839v2.838h1.943v1.451h-1.943v4.768c0 .837.358 1.252 1.075 1.252a4.18 4.18 0 0 0 1.011-.104l-.079 1.419c-.438.064-.956.104-1.553.104-.884 0-1.513-.207-1.903-.63-.342-.375-.518-.933-.518-1.674v-5.135h-1.297v-1.451h1.297v-2.392l1.967-.447zm5.749 5.023c.446-1.603 1.648-2.4 3.591-2.4 2.245 0 3.368.965 3.368 2.886v3.445a25.87 25.87 0 0 0 .135 2.567h-1.831l-.143-1.14c-.621.901-1.529 1.347-2.731 1.347-.86 0-1.537-.263-2.023-.789-.43-.462-.645-1.06-.645-1.794 0-1.547.948-2.504 2.835-2.87.7-.136 1.529-.215 2.476-.247v-.494c0-.582-.135-.989-.406-1.228-.239-.207-.605-.311-1.099-.311-.454 0-.828.144-1.122.439-.271.271-.454.63-.534 1.084l-1.871-.494zm5.032 2.24c-.661.016-1.33.104-1.991.255-.947.223-1.417.718-1.417 1.475 0 .877.462 1.316 1.394 1.316.844 0 1.52-.478 2.022-1.427v-1.619h-.008zm8.791-8.252v12.51h-1.991V72.42h1.991zm6.999.232v2.041h-2.158v-2.041h2.158zm-.088 3.596v8.691h-1.991v-8.691h1.991zm11.179 2.025l-1.887.542c-.215-.933-.732-1.395-1.545-1.395-.446 0-.788.104-1.043.311a.78.78 0 0 0-.318.63c0 .367.119.638.35.821.215.168.613.327 1.194.478l.725.191c1.051.279 1.776.638 2.166 1.076.35.391.525.909.525 1.571 0 .869-.334 1.539-.995 2.009-.613.447-1.449.662-2.516.662-1.887 0-3.097-.726-3.623-2.169l1.855-.646c.279.973.884 1.459 1.816 1.459 1.051 0 1.584-.375 1.584-1.124 0-.375-.119-.646-.374-.813-.207-.136-.645-.303-1.306-.494l-.724-.199c-1.004-.271-1.688-.614-2.063-1.053-.326-.383-.485-.909-.485-1.595a2.16 2.16 0 0 1 .947-1.85c.581-.415 1.354-.63 2.309-.63 1.776-.008 2.914.733 3.408 2.216zm11.832 2.75h-5.868c.008.909.223 1.603.637 2.089.374.439.892.654 1.553.654.931 0 1.544-.55 1.831-1.65l1.807.526c-.541 1.682-1.767 2.52-3.662 2.52-1.386 0-2.437-.447-3.153-1.348-.629-.781-.948-1.842-.948-3.165 0-1.507.414-2.671 1.234-3.508.709-.718 1.609-1.084 2.7-1.084 1.226 0 2.189.446 2.898 1.339.653.813.971 1.882.971 3.221v.407zm-1.943-1.315c-.095-1.523-.732-2.28-1.903-2.28-.637 0-1.122.231-1.473.694-.294.399-.469.925-.517 1.587h3.893zm20.018-3.46l-3.058 9.01c-.358 1.052-.836 1.786-1.449 2.201-.517.359-1.194.542-2.038.542-.374 0-.733-.032-1.083-.088l-.08-1.515a6.43 6.43 0 0 0 1.115.112c.796 0 1.346-.447 1.64-1.347l.128-.375-2.938-8.531h2.102l1.035 3.644.724 2.854h.152l.406-1.523.374-1.363.995-3.612 1.975-.008zm7.397-.2c1.266 0 2.261.454 2.97 1.371.629.805.947 1.866.947 3.165 0 1.499-.406 2.671-1.218 3.5-.701.718-1.608 1.076-2.715 1.076-1.274 0-2.269-.455-2.978-1.371-.629-.805-.94-1.858-.94-3.165 0-1.499.407-2.663 1.227-3.5.7-.718 1.608-1.076 2.707-1.076zm0 1.443c-1.266 0-1.903 1.037-1.903 3.11 0 2.081.629 3.125 1.887 3.125 1.266 0 1.903-1.036 1.903-3.125 0-2.073-.629-3.11-1.887-3.11zm15.543-1.243v8.691h-1.927V83.44c-.335.566-.773 1.005-1.306 1.316-.478.271-.979.407-1.513.407-.788 0-1.409-.239-1.871-.725-.43-.463-.645-1.076-.645-1.842v-6.347h2.038v5.773c0 .957.406 1.427 1.219 1.427.39 0 .788-.159 1.186-.478a3.09 3.09 0 0 0 .82-1.013V76.24h1.999v.008zm9.491-.2l-.136 1.874c-1.106 0-1.926.734-2.46 2.201v4.808h-1.959V76.24h1.871v2.137c.558-1.547 1.45-2.328 2.684-2.328zm12.875-3.628v5.071a3.1 3.1 0 0 1 1.139-1.108c.398-.215.812-.327 1.25-.327 1.051 0 1.871.423 2.46 1.276.55.797.828 1.866.828 3.205 0 1.523-.382 2.719-1.138 3.572-.614.694-1.362 1.037-2.254 1.037-1.115 0-1.919-.526-2.428-1.571l-.406 1.347h-1.426V72.42h1.975zm0 6.689v3.054c.414.973 1.003 1.451 1.752 1.451.597 0 1.067-.279 1.393-.837.327-.526.486-1.268.486-2.201 0-1.044-.191-1.826-.581-2.344a1.4 1.4 0 0 0-1.187-.614c-.804 0-1.425.502-1.863 1.491zm17.294-2.861v8.691h-1.935V83.44a3.62 3.62 0 0 1-1.306 1.316 3.01 3.01 0 0 1-1.512.407c-.789 0-1.41-.239-1.872-.725-.43-.463-.637-1.076-.637-1.842v-6.347h2.039v5.773c0 .957.406 1.427 1.218 1.427.39 0 .788-.159 1.186-.478a3.08 3.08 0 0 0 .821-1.013V76.24h1.998v.008zm11.195 2.025l-1.887.542c-.215-.933-.732-1.395-1.545-1.395-.445 0-.788.104-1.043.311a.76.76 0 0 0-.318.63c0 .367.119.638.35.821.215.168.613.327 1.195.478l.724.191c1.051.279 1.768.638 2.166 1.076.35.391.525.909.525 1.571 0 .869-.334 1.539-.995 2.009-.613.447-1.449.662-2.516.662-1.887 0-3.097-.726-3.623-2.169l1.855-.646c.279.973.884 1.459 1.816 1.459 1.051 0 1.584-.375 1.584-1.124 0-.375-.127-.646-.374-.813-.215-.136-.645-.303-1.306-.494l-.724-.199c-1.004-.271-1.688-.614-2.063-1.053-.326-.383-.485-.909-.485-1.595a2.16 2.16 0 0 1 .947-1.85c.582-.415 1.346-.63 2.309-.63 1.776-.008 2.907.733 3.408 2.216zm6.601-5.621v2.041h-2.15v-2.041h2.15zm-.087 3.596v8.691h-1.991v-8.691h1.991zm6.848 0v1.523c.382-.566.836-1.005 1.361-1.308.478-.271.972-.407 1.489-.407.788 0 1.409.255 1.855.773.414.463.621 1.076.621 1.842v6.267h-2.038v-5.717c0-.973-.406-1.459-1.202-1.459-.374 0-.749.151-1.147.447-.334.263-.629.606-.884 1.028v5.701h-1.99v-8.691h1.935zm17.509 4.775h-5.869c.008.909.223 1.603.637 2.089.375.439.892.654 1.553.654.932 0 1.545-.55 1.831-1.65l1.808.526c-.542 1.682-1.768 2.52-3.663 2.52-1.385 0-2.436-.447-3.161-1.348-.629-.781-.947-1.842-.947-3.165 0-1.507.414-2.671 1.234-3.508.708-.718 1.608-1.084 2.699-1.084 1.226 0 2.19.446 2.898 1.339.653.813.972 1.882.972 3.221l.008.407zm-1.943-1.315c-.096-1.523-.733-2.28-1.903-2.28-.637 0-1.123.231-1.473.694-.295.399-.47.925-.518 1.587h3.894zm12.58-1.435l-1.887.542c-.215-.933-.732-1.395-1.544-1.395-.446 0-.789.104-1.043.311-.207.167-.319.375-.319.63 0 .367.12.638.342.821.215.168.614.327 1.195.478l.724.191c1.051.279 1.776.638 2.166 1.076.351.391.526.909.526 1.571 0 .869-.335 1.539-.996 2.009-.613.447-1.449.662-2.516.662-1.887 0-3.097-.726-3.623-2.169l1.856-.646c.278.973.883 1.459 1.815 1.459 1.051 0 1.585-.375 1.585-1.124 0-.375-.12-.646-.375-.813-.215-.136-.645-.303-1.305-.494l-.725-.199c-1.003-.271-1.688-.614-2.062-1.053-.327-.383-.486-.909-.486-1.595a2.16 2.16 0 0 1 .948-1.85c.581-.415 1.353-.63 2.309-.63 1.783-.008 2.914.733 3.415 2.216zm10.806 0l-1.888.542c-.215-.933-.732-1.395-1.544-1.395-.446 0-.789.104-1.043.311-.207.167-.319.375-.319.63 0 .367.12.638.35.821.215.168.614.327 1.195.478l.724.191c1.051.279 1.776.638 2.166 1.076.351.391.526.909.526 1.571 0 .869-.335 1.539-.996 2.009-.613.447-1.449.662-2.516.662-1.887 0-3.097-.726-3.623-2.169l1.856-.646c.278.973.883 1.459 1.815 1.459 1.051 0 1.585-.375 1.585-1.124 0-.375-.12-.646-.375-.813-.215-.136-.645-.303-1.305-.494l-.725-.199c-1.003-.271-1.688-.614-2.062-1.053-.327-.383-.486-.909-.486-1.595a2.16 2.16 0 0 1 .948-1.85c.581-.415 1.353-.63 2.309-.63 1.775-.008 2.906.733 3.408 2.216z" fill="#fff"/></svg>